<svg width="500" height="437" viewBox="0 0 500 437" fill="none" xmlns="http://www.w3.org/2000/svg">
<path d="M435.07 80.13H272.02V294.76H435.07V80.13Z" fill="#E6E6E6"/>
<path d="M428.33 86.78H279.2V286.71H428.33V86.78Z" fill="#F5F5F5"/>
<path d="M321.34 86.78L279.2 276.31V173.7L298.48 86.78H321.34Z" fill="white"/>
<path d="M340.18 86.78L295.73 286.7H287.35L331.8 86.78H340.18Z" fill="white"/>
<path d="M428.32 142.65V244.32L418.88 286.7H396.02L428.32 142.65Z" fill="white"/>
<path d="M356.44 80.13H350.65V294.76H356.44V80.13Z" fill="#E6E6E6"/>
<path d="M431.94 116.74H274.85V122.53H431.94V116.74Z" fill="#E6E6E6"/>
<path d="M422.2 373.67C422.2 373.11 420.29 317.11 411.2 308.26C402.34 299.64 392.2 307.93 391.74 308.26L390.83 307.17C390.95 307.07 402.42 297.7 412.19 307.17C421.71 316.43 423.57 371.24 423.65 373.57L422.2 373.67Z" fill="#E0E0E0"/>
<path d="M423 384.68C422.94 384.01 416.78 317.45 441.09 289.56L442.16 290.49C418.26 317.93 424.36 383.88 424.42 384.54L423 384.68Z" fill="#E0E0E0"/>
<path d="M422.09 377.64L420.66 377.55C420.66 376.79 425.42 301.88 407.59 285.48L408.59 284.43C426.88 301.29 422.29 374.53 422.09 377.64Z" fill="#E0E0E0"/>
<path d="M424.41 377.6H423C423 375.53 423.59 327 437.38 319.1C438.689 318.251 440.182 317.73 441.734 317.578C443.286 317.427 444.852 317.65 446.3 318.23C454.63 321.67 458.76 336.51 458.94 337.14L457.56 337.52C457.56 337.37 453.44 322.72 445.75 319.52C444.501 319.033 443.153 318.851 441.82 318.988C440.486 319.125 439.204 319.579 438.08 320.31C425 327.82 424.41 377.1 424.41 377.6Z" fill="#E0E0E0"/>
<path d="M419 377.63L417.57 377.55C417.57 377.17 419.65 339.2 409.41 325.82C406.92 322.58 404.23 321.03 401.41 321.23C394.7 321.7 389.07 331.53 389.01 331.62L387.77 330.92C388.01 330.49 393.83 320.33 401.31 319.81C404.66 319.57 407.77 321.3 410.57 324.95C421.15 338.75 419.13 376.05 419 377.63Z" fill="#E0E0E0"/>
<path d="M421.28 382.8C421.01 379.11 414.59 292.41 425.88 277.13L427 278C416 292.86 422.61 381.81 422.68 382.71L421.28 382.8Z" fill="#E0E0E0"/>
<path d="M449.35 327C449.35 327 442.57 329.5 444.59 335.4C446.61 341.3 468 351 468 351C468 351 477 342.78 468.73 329.4C460.46 316.02 449.53 322.78 449.35 327Z" fill="#EBEBEB"/>
<path d="M419.89 315.78C419.89 315.78 427.1 315.47 427.51 321.69C427.92 327.91 411.88 345.12 411.88 345.12C411.88 345.12 400.43 340.98 402.88 325.46C405.33 309.94 418.09 312 419.89 315.78Z" fill="#EBEBEB"/>
<path d="M413.78 286C413.78 286 418.59 285.48 418.2 282.55C417.81 279.62 399.5 272.08 388.69 284.27C388.69 284.27 395.61 296.16 405.62 296.27C415.63 296.38 413.78 286 413.78 286Z" fill="#EBEBEB"/>
<path d="M422.74 278.89C422.74 278.89 418.39 281 417.17 278.3C415.95 275.6 427.5 259.52 443.12 264.16C443.12 264.16 443.54 277.91 435.12 283.33C426.7 288.75 422.74 278.89 422.74 278.89Z" fill="#EBEBEB"/>
<path d="M400 324.63C400 324.63 403.33 321.95 399.74 320.63C396.15 319.31 378.58 319.7 378.39 337.11C378.39 337.11 398.87 340.52 401.39 333.88C403.91 327.24 400 324.63 400 324.63Z" fill="#EBEBEB"/>
<path d="M441.72 285.57C441.72 285.57 438.4 282.89 441.99 281.57C445.58 280.25 463.15 280.63 463.34 298.05C463.34 298.05 442.86 301.45 440.34 294.82C437.82 288.19 441.72 285.57 441.72 285.57Z" fill="#EBEBEB"/>
<path d="M430.9 299.6C430.9 299.6 430.61 296.34 433.24 297.6C435.87 298.86 445.03 308.76 435.53 318.15C435.53 318.15 422.74 308.67 425.05 303.74C427.36 298.81 430.9 299.6 430.9 299.6Z" fill="#EBEBEB"/>
<path d="M397 304.24C397 304.24 399 301.64 396.07 301.32C393.14 301 380.14 304.47 383.17 317.48C383.17 317.48 399.04 316.29 399.73 310.88C400.42 305.47 397 304.24 397 304.24Z" fill="#EBEBEB"/>
<path d="M438.61 391.52H402.58L398.63 360.91H442.44L438.61 391.52Z" fill="#F0F0F0"/>
<path d="M445.53 357.14H395.66V364.68H445.53V357.14Z" fill="#E6E6E6"/>
<path d="M71.7 373.67C71.7 373.11 69.79 317.11 60.7 308.26C51.84 299.64 41.7 307.93 41.24 308.26L40.33 307.17C40.45 307.07 51.92 297.7 61.69 307.17C71.21 316.43 73.07 371.24 73.15 373.57L71.7 373.67Z" fill="#E0E0E0"/>
<path d="M72.48 384.68C72.42 384.01 66.26 317.45 90.57 289.56L91.64 290.49C67.74 317.93 73.84 383.88 73.9 384.54L72.48 384.68Z" fill="#E0E0E0"/>
<path d="M71.59 377.64L70.16 377.55C70.16 376.79 74.92 301.88 57.09 285.48L58.09 284.43C76.38 301.29 71.79 374.53 71.59 377.64Z" fill="#E0E0E0"/>
<path d="M73.91 377.6H72.48C72.48 375.53 73.07 327 86.86 319.1C88.1685 318.251 89.6617 317.73 91.214 317.578C92.7662 317.427 94.3321 317.65 95.78 318.23C104.11 321.67 108.24 336.51 108.42 337.14L107.04 337.52C107.04 337.37 102.92 322.72 95.23 319.52C93.9807 319.033 92.6333 318.851 91.2995 318.988C89.9657 319.125 88.6838 319.579 87.56 320.31C74.48 327.82 73.91 377.1 73.91 377.6Z" fill="#E0E0E0"/>
<path d="M68.54 377.63L67.11 377.55C67.11 377.17 69.19 339.2 58.95 325.82C56.46 322.58 53.77 321.03 50.95 321.23C44.24 321.7 38.61 331.53 38.55 331.62L37.31 330.92C37.55 330.49 43.37 320.33 50.85 319.81C54.2 319.57 57.31 321.3 60.11 324.95C70.65 338.75 68.63 376.05 68.54 377.63Z" fill="#E0E0E0"/>
<path d="M70.78 382.8C70.51 379.11 64.09 292.41 75.38 277.13L76.53 277.98C65.53 292.84 72.14 381.79 72.21 382.69L70.78 382.8Z" fill="#E0E0E0"/>
<path d="M98.85 327C98.85 327 92.07 329.5 94.09 335.4C96.11 341.3 117.53 351 117.53 351C117.53 351 126.53 342.78 118.26 329.4C109.99 316.02 99 322.78 98.85 327Z" fill="#EBEBEB"/>
<path d="M69.39 315.78C69.39 315.78 76.61 315.47 77.02 321.69C77.43 327.91 61.38 345.12 61.38 345.12C61.38 345.12 49.93 340.98 52.38 325.46C54.83 309.94 67.6 312 69.39 315.78Z" fill="#EBEBEB"/>
<path d="M63.28 286C63.28 286 68.09 285.48 67.7 282.55C67.31 279.62 49 272.09 38.19 284.28C38.19 284.28 45.11 296.17 55.12 296.28C65.13 296.39 63.28 286 63.28 286Z" fill="#EBEBEB"/>
<path d="M72.24 278.89C72.24 278.89 67.89 281 66.67 278.3C65.45 275.6 77 259.52 92.67 264.16C92.67 264.16 93.09 277.91 84.67 283.33C76.25 288.75 72.24 278.89 72.24 278.89Z" fill="#EBEBEB"/>
<path d="M49.47 324.63C49.47 324.63 52.79 321.95 49.2 320.63C45.61 319.31 28 319.71 27.85 337.12C27.85 337.12 48.33 340.53 50.85 333.89C53.37 327.25 49.47 324.63 49.47 324.63Z" fill="#EBEBEB"/>
<path d="M91.22 285.57C91.22 285.57 87.9 282.89 91.49 281.57C95.08 280.25 112.65 280.63 112.84 298.05C112.84 298.05 92.36 301.45 89.84 294.82C87.32 288.19 91.22 285.57 91.22 285.57Z" fill="#EBEBEB"/>
<path d="M80.4 299.6C80.4 299.6 80.11 296.34 82.74 297.6C85.37 298.86 94.53 308.78 85 318.17C85 318.17 72.21 308.69 74.52 303.76C76.83 298.83 80.4 299.6 80.4 299.6Z" fill="#EBEBEB"/>
<path d="M46.5 304.24C46.5 304.24 48.5 301.64 45.57 301.32C42.64 301 29.64 304.47 32.67 317.48C32.67 317.48 48.55 316.29 49.23 310.88C49.91 305.47 46.5 304.24 46.5 304.24Z" fill="#EBEBEB"/>
<path d="M88.11 391.52H52.08L48.13 360.91H91.94L88.11 391.52Z" fill="#F0F0F0"/>
<path d="M95.03 357.14H45.16V364.68H95.03V357.14Z" fill="#E6E6E6"/>
<path d="M443.92 330.2H263.17C261.617 330.197 260.128 329.579 259.029 328.481C257.931 327.382 257.313 325.893 257.31 324.34V61.06C257.313 59.5066 257.931 58.0177 259.029 56.9193C260.128 55.8209 261.617 55.2026 263.17 55.2H443.92C445.473 55.2026 446.962 55.8209 448.061 56.9193C449.159 58.0177 449.777 59.5066 449.78 61.06V324.34C449.777 325.893 449.159 327.382 448.061 328.481C446.962 329.579 445.473 330.197 443.92 330.2ZM263.17 55.45C261.683 55.4526 260.258 56.0445 259.206 57.096C258.155 58.1476 257.563 59.5729 257.56 61.06V324.34C257.563 325.827 258.155 327.252 259.206 328.304C260.258 329.355 261.683 329.947 263.17 329.95H443.92C445.408 329.95 446.835 329.359 447.887 328.307C448.939 327.255 449.53 325.828 449.53 324.34V61.06C449.53 59.5721 448.939 58.1452 447.887 57.0931C446.835 56.041 445.408 55.45 443.92 55.45H263.17Z" fill="#E0E0E0"/>
<path d="M235.49 330.2H54.75C53.1949 330.2 51.7034 329.583 50.6028 328.484C49.5023 327.386 48.8827 325.895 48.88 324.34V61.06C48.8827 59.5049 49.5023 58.0144 50.6028 56.9157C51.7034 55.8171 53.1949 55.2 54.75 55.2H235.49C237.044 55.2 238.535 55.8174 239.634 56.9164C240.733 58.0153 241.35 59.5058 241.35 61.06V324.34C241.35 325.894 240.733 327.385 239.634 328.484C238.535 329.583 237.044 330.2 235.49 330.2ZM54.75 55.45C53.2612 55.45 51.8333 56.0407 50.7796 57.0925C49.7259 58.1443 49.1327 59.5712 49.13 61.06V324.34C49.1247 325.081 49.2662 325.816 49.5463 326.503C49.8263 327.189 50.2395 327.814 50.7619 328.34C51.2842 328.866 51.9056 329.283 52.59 329.568C53.2745 329.853 54.0086 330 54.75 330H235.49C236.227 330 236.956 329.855 237.637 329.573C238.317 329.291 238.936 328.878 239.457 328.357C239.978 327.836 240.391 327.217 240.673 326.537C240.955 325.856 241.1 325.127 241.1 324.39V61.06C241.1 60.3233 240.955 59.5938 240.673 58.9131C240.391 58.2325 239.978 57.6141 239.457 57.0931C238.936 56.5722 238.317 56.159 237.637 55.877C236.956 55.5951 236.227 55.45 235.49 55.45H54.75Z" fill="#E0E0E0"/>
<path d="M500 391.27H0V391.52H500V391.27Z" fill="#E0E0E0"/>
<path d="M67.73 405.53H51.67V405.78H67.73V405.53Z" fill="#E0E0E0"/>
<path d="M223.88 402.82H170.35V403.07H223.88V402.82Z" fill="#E0E0E0"/>
<path d="M104.98 414.82H68.73V415.07H104.98V414.82Z" fill="#E0E0E0"/>
<path d="M421.54 402.69H378.35V402.94H421.54V402.69Z" fill="#E0E0E0"/>
<path d="M436.78 402.69H430.45V402.94H436.78V402.69Z" fill="#E0E0E0"/>
<path d="M370.1 408.92H316.21V409.17H370.1V408.92Z" fill="#E0E0E0"/>
<path d="M170.78 75.74H103.96V193.35H170.78V75.74Z" fill="#E6E6E6"/>
<path d="M167.51 75.74H89.01V193.35H167.51V75.74Z" fill="#F0F0F0"/>
<path d="M155.54 86.19H100.94V182.91H155.54V86.19Z" fill="white"/>
<path d="M139.49 106.55H117.71V163.07H139.49V106.55Z" fill="#F0F0F0"/>
<path d="M151.47 212.25H110.1V290.24H151.47V212.25Z" fill="#E6E6E6"/>
<path d="M149.44 212.25H100.85V290.24H149.44V212.25Z" fill="#F0F0F0"/>
<path d="M142.04 219.18H108.24V283.31H142.04V219.18Z" fill="white"/>
<path d="M132.11 232.68H118.62V270.16H132.11V232.68Z" fill="#F0F0F0"/>
<path d="M434.47 170.4C437.548 165.121 439.124 159.1 439.027 152.99C438.93 146.88 437.164 140.913 433.92 135.734C430.676 130.555 426.077 126.362 420.622 123.608C415.167 120.854 409.062 119.644 402.969 120.109C396.876 120.575 391.026 122.697 386.052 126.248C381.078 129.798 377.17 134.641 374.75 140.252C372.33 145.864 371.491 152.03 372.323 158.084C373.155 164.138 375.626 169.849 379.47 174.6L377.83 184.53L388.22 182.24C388.38 182.33 388.52 182.45 388.69 182.54C396.372 186.996 405.508 188.22 414.092 185.943C422.676 183.667 430.005 178.077 434.47 170.4Z" fill="#407BFF"/>
<path d="M443.08 153.27C443.015 153.265 442.955 153.235 442.913 153.186C442.87 153.138 442.847 153.075 442.85 153.01C443.174 147.596 442.163 142.185 439.905 137.254C437.647 132.322 434.211 128.021 429.9 124.73C429.847 124.69 429.812 124.631 429.803 124.565C429.793 124.5 429.81 124.433 429.85 124.38C429.89 124.327 429.949 124.292 430.015 124.283C430.08 124.273 430.147 124.29 430.2 124.33C434.569 127.668 438.051 132.028 440.341 137.027C442.63 142.026 443.657 147.511 443.33 153C443.334 153.035 443.331 153.07 443.32 153.104C443.31 153.137 443.292 153.168 443.268 153.193C443.244 153.219 443.215 153.239 443.183 153.253C443.15 153.266 443.115 153.272 443.08 153.27Z" fill="#407BFF"/>
<path d="M441.54 163.09H441.45C441.419 163.078 441.39 163.06 441.367 163.036C441.343 163.013 441.324 162.985 441.312 162.954C441.3 162.923 441.294 162.889 441.296 162.856C441.297 162.823 441.305 162.79 441.32 162.76C441.97 161.264 442.31 159.651 442.32 158.02C442.32 157.953 442.346 157.888 442.393 157.84C442.439 157.791 442.503 157.763 442.57 157.76C442.636 157.76 442.7 157.786 442.747 157.833C442.794 157.88 442.82 157.944 442.82 158.01C442.83 159.711 442.489 161.396 441.82 162.96C441.796 163.011 441.755 163.052 441.704 163.076C441.652 163.1 441.595 163.105 441.54 163.09Z" fill="#407BFF"/>
<g opacity="0.3">
<path d="M434.47 170.4C437.548 165.121 439.124 159.1 439.027 152.99C438.93 146.88 437.164 140.913 433.92 135.734C430.676 130.555 426.077 126.362 420.622 123.608C415.167 120.854 409.062 119.644 402.969 120.109C396.876 120.575 391.026 122.697 386.052 126.248C381.078 129.798 377.17 134.641 374.75 140.252C372.33 145.864 371.491 152.03 372.323 158.084C373.155 164.138 375.626 169.849 379.47 174.6L377.83 184.53L388.22 182.24C388.38 182.33 388.52 182.45 388.69 182.54C396.372 186.996 405.508 188.22 414.092 185.943C422.676 183.667 430.005 178.077 434.47 170.4Z" fill="white"/>
</g>
<path d="M403.22 169.16C402.81 168.777 402.485 168.312 402.266 167.795C402.047 167.278 401.939 166.721 401.95 166.16C401.936 165.611 402.039 165.066 402.253 164.561C402.467 164.056 402.786 163.602 403.19 163.23C404.074 162.468 405.203 162.048 406.37 162.048C407.537 162.048 408.666 162.468 409.55 163.23C409.955 163.601 410.276 164.055 410.491 164.56C410.707 165.065 410.812 165.611 410.8 166.16C410.811 166.721 410.703 167.278 410.484 167.795C410.265 168.312 409.94 168.777 409.53 169.16C408.667 169.945 407.542 170.38 406.375 170.38C405.208 170.38 404.083 169.945 403.22 169.16ZM402.09 137.75H410.66L409.23 158.81H403.52L402.09 137.75Z" fill="white"/>
<path d="M290.3 315.46L317.1 370.17L374.63 383.77L385.07 407.77C385.07 407.77 322.54 418.65 299.45 409.12C276.36 399.59 254.86 331.82 254.86 331.82L290.3 315.46Z" fill="#B97964"/>
<path d="M230.44 243.88C213.73 256.07 211.65 290.34 263.27 364.04L307.59 342.22C299.92 323.75 286.29 293.15 272.59 267.94C256.84 235.62 230.44 243.88 230.44 243.88Z" fill="#407BFF"/>
<path d="M250.52 249.66C249.46 248.51 242.52 244.34 238.73 244.34C225.46 243.52 178.21 238.06 124.05 248.93L114.23 444.15H273.85C267.64 385.61 260.18 302.31 250.52 249.66Z" fill="#407BFF"/>
<path opacity="0.2" d="M118.26 363.3L125.06 364.19L135.81 311.46L130.84 370.64L116.51 372.98L118.26 363.3Z" fill="black"/>
<path d="M123.22 346.42L116.51 373.33L153.7 339.86L167.41 361.86C167.41 361.86 122.55 425.15 104.84 430.42C98.16 432.42 73.84 425.97 73.84 407.9C73.84 374.04 81.28 349.96 86.54 320.7L123.22 346.42Z" fill="#B97964"/>
<path d="M124.71 248.8C124.71 248.8 100.48 252.39 92 285.58C85.76 309.85 73.92 360.1 73.92 360.1L127.25 367L138 303L124.71 248.8Z" fill="#407BFF"/>
<path opacity="0.2" d="M116.39 373.1C116.39 373.1 102.39 376.96 97.7899 392.04C97.7899 392.04 96.1499 385.82 101.42 377.69C106.69 369.56 118 366.58 118 366.58L116.39 373.1Z" fill="black"/>
<path d="M227 120.22C227 120.22 247.61 134.48 238.92 171.73C230.23 208.98 187.84 132.51 227 120.22Z" fill="#263238"/>
<path d="M170.5 244.08C170.5 244.08 172.98 226.27 162.56 195.4C162.56 195.4 164.17 194.56 164.17 194.53C162.73 190.21 161.23 186.23 159.82 182.78C159.814 182.733 159.814 182.686 159.82 182.64L203.73 207.21C203.16 217.21 207.59 236.42 210.09 244.48C210.09 244.48 216.09 259.03 196.5 260.48C182.13 261.62 170.5 244.08 170.5 244.08Z" fill="#B97964"/>
<path opacity="0.2" d="M205.05 221.24L180.19 216.76C182.76 224.32 189.93 233.1 207.09 233.09C207.09 233.09 205 224.6 205.05 221.24Z" fill="black"/>
<path d="M158.55 161.88C162.62 188.88 164.36 204.17 179.31 216.76C201.8 235.7 233.5 220.68 237.59 192.94C241.27 167.94 234 128.04 206.46 119.84C179.32 111.77 154.49 134.9 158.55 161.88Z" fill="#B97964"/>
<path d="M152.23 129.56C154.63 114.28 192.09 110.8 203.23 117.56C204.89 118.56 183.68 131.68 184.98 131.07L174.85 135.6C173.21 135.39 170.21 137.55 169.02 142.69C169.02 142.69 173.88 184.19 163.16 197.28C153.28 193.49 151.27 177.05 147.41 167.5C141.68 153.22 134.42 132.27 152.23 129.56Z" fill="#263238"/>
<path d="M197.46 168.81C197.71 171.59 199.38 173.7 201.19 173.52C203 173.34 204.28 170.95 204.04 168.17C203.8 165.39 202.12 163.29 200.31 163.46C198.5 163.63 197.22 166 197.46 168.81Z" fill="#263238"/>
<path d="M224.38 167C224.62 169.78 226.29 171.88 228.11 171.7C229.93 171.52 231.2 169.13 230.95 166.35C230.7 163.57 229.04 161.47 227.22 161.65C225.4 161.83 224.13 164.22 224.38 167Z" fill="#263238"/>
<path d="M216.37 163.67C216.37 163.67 226.37 176.67 229.69 182.06C226.13 185.89 219.33 184.87 219.33 184.87L216.37 163.67Z" fill="#A24E3F"/>
<path d="M190.14 153.8C190.362 153.868 190.599 153.876 190.825 153.824C191.052 153.771 191.26 153.659 191.43 153.5C192.598 152.345 194.021 151.48 195.584 150.974C197.147 150.469 198.807 150.337 200.43 150.59C200.6 150.63 200.776 150.636 200.949 150.607C201.121 150.578 201.286 150.515 201.434 150.422C201.582 150.329 201.71 150.208 201.81 150.065C201.911 149.922 201.982 149.761 202.02 149.59C202.06 149.421 202.065 149.246 202.036 149.075C202.007 148.904 201.944 148.741 201.851 148.594C201.758 148.448 201.636 148.322 201.493 148.223C201.351 148.124 201.19 148.055 201.02 148.02C198.971 147.66 196.866 147.795 194.88 148.412C192.894 149.03 191.084 150.112 189.6 151.57C189.474 151.686 189.373 151.826 189.301 151.981C189.23 152.137 189.19 152.305 189.183 152.475C189.177 152.646 189.204 152.817 189.263 152.977C189.323 153.138 189.414 153.285 189.53 153.41C189.693 153.594 189.904 153.729 190.14 153.8Z" fill="#263238"/>
<path d="M164.85 185.05C178.18 192.87 175.2 178.92 174.27 177.49C170.19 171.23 173.9 162.66 178.52 150.56C180.58 145.18 179.19 136.35 179.19 136.35C179.19 136.35 162.72 133.01 152.84 135.41C142.65 137.88 142.21 146.07 142.21 146.07C144.19 171.84 154.12 178.74 164.85 185.05Z" fill="#263238"/>
<path d="M150.89 150.09C150.89 150.09 138.89 133.64 159.44 118.09C179.99 102.54 212.71 101.01 231.17 107.71C249.63 114.41 235.95 129.81 216.17 136.34C205.36 139.92 200.88 138.02 200.88 138.02C200.88 138.02 206.48 138.79 214.5 131.49C214.5 131.49 187.7 131.07 183.2 147.28C178.7 163.49 150.89 150.09 150.89 150.09Z" fill="#263238"/>
<path d="M149.83 185.67C151.146 188.793 153.068 191.623 155.485 193.999C157.902 196.374 160.765 198.248 163.91 199.51C172.37 202.82 174.6 193.7 173.08 185.21C171.71 177.58 168.64 168.41 159.76 168.72C150.88 169.03 146.65 177.91 149.83 185.67Z" fill="#B97964"/>
<path opacity="0.2" d="M168.48 184.68C168.422 184.679 168.366 184.659 168.321 184.623C168.275 184.587 168.243 184.536 168.23 184.48C167.78 182.208 166.746 180.091 165.23 178.34C164.017 176.853 162.329 175.829 160.45 175.44C159.532 175.266 158.583 175.371 157.726 175.742C156.868 176.113 156.142 176.732 155.64 177.52C155.606 177.577 155.553 177.618 155.49 177.637C155.427 177.655 155.359 177.649 155.3 177.62C155.271 177.604 155.245 177.583 155.225 177.557C155.204 177.532 155.189 177.502 155.179 177.471C155.17 177.439 155.167 177.406 155.171 177.373C155.174 177.341 155.184 177.309 155.2 177.28C155.752 176.404 156.554 175.713 157.502 175.295C158.45 174.878 159.501 174.755 160.52 174.94C162.515 175.351 164.308 176.435 165.6 178.01C167.197 179.819 168.29 182.015 168.77 184.38C168.777 184.412 168.778 184.445 168.773 184.478C168.767 184.511 168.755 184.542 168.737 184.57C168.72 184.597 168.697 184.622 168.67 184.641C168.643 184.659 168.612 184.673 168.58 184.68H168.48Z" fill="black"/>
<path d="M236.34 151.64C236.588 151.568 236.808 151.421 236.97 151.22C237.191 150.953 237.297 150.61 237.265 150.265C237.233 149.92 237.066 149.602 236.8 149.38C235.236 148.034 233.371 147.084 231.362 146.611C229.354 146.137 227.261 146.154 225.26 146.66C224.93 146.766 224.656 146.997 224.497 147.305C224.337 147.612 224.306 147.97 224.41 148.3C224.459 148.463 224.54 148.615 224.648 148.747C224.757 148.879 224.89 148.988 225.041 149.068C225.191 149.148 225.356 149.197 225.526 149.213C225.696 149.229 225.867 149.211 226.03 149.16C227.617 148.761 229.277 148.758 230.865 149.15C232.454 149.542 233.921 150.318 235.14 151.41C235.305 151.545 235.501 151.637 235.711 151.677C235.92 151.718 236.137 151.705 236.34 151.64Z" fill="#263238"/>
<path d="M207.4 197C205.435 197.003 203.517 196.401 201.907 195.276C200.296 194.15 199.072 192.556 198.4 190.71C198.377 190.648 198.366 190.583 198.369 190.517C198.371 190.451 198.386 190.386 198.414 190.326C198.441 190.267 198.48 190.213 198.528 190.168C198.577 190.123 198.633 190.088 198.695 190.065C198.757 190.042 198.822 190.031 198.888 190.034C198.954 190.036 199.019 190.052 199.079 190.079C199.138 190.106 199.192 190.145 199.237 190.193C199.282 190.242 199.317 190.298 199.34 190.36C200.075 192.381 201.543 194.053 203.453 195.042C205.363 196.031 207.575 196.266 209.65 195.7C209.716 195.683 209.784 195.679 209.851 195.688C209.918 195.698 209.983 195.72 210.042 195.755C210.1 195.789 210.151 195.834 210.192 195.889C210.233 195.943 210.263 196.004 210.28 196.07C210.297 196.136 210.301 196.204 210.292 196.271C210.282 196.338 210.26 196.403 210.225 196.462C210.191 196.52 210.146 196.571 210.091 196.612C210.037 196.653 209.976 196.683 209.91 196.7C209.09 196.911 208.246 197.012 207.4 197Z" fill="#263238"/>
<path d="M217.39 193.55C216.306 196.761 215.454 200.047 214.84 203.38C214.25 203.38 213.65 203.38 213.05 203.38C204.96 203.13 201.28 200.38 199.66 197.33C198.899 195.838 198.508 194.185 198.52 192.51C198.495 191.563 198.603 190.617 198.84 189.7C203.05 192.39 210.59 193.2 214.63 193.47C216.32 193.56 217.39 193.55 217.39 193.55Z" fill="#263238"/>
<path d="M214.63 193.43L213.8 196.3C206.18 196.06 200.8 194.86 198.52 192.47C198.495 191.523 198.603 190.577 198.84 189.66C203.05 192.35 210.59 193.16 214.63 193.43Z" fill="white"/>
<path d="M212.76 203.32C204.84 203.08 201.24 200.37 199.65 197.44C202.661 197.592 205.622 198.268 208.4 199.44C210.222 200.247 211.747 201.604 212.76 203.32Z" fill="#DE5753"/>
<path d="M159 358.26C158.15 361.81 165.28 366.55 174.92 368.85C184.56 371.15 193.06 370.13 193.92 366.58C194.78 363.03 187.64 358.29 178 356C168.36 353.71 159.8 354.71 159 358.26Z" fill="#407BFF"/>
<path opacity="0.8" d="M159 358.26C158.15 361.81 165.28 366.55 174.92 368.85C184.56 371.15 193.06 370.13 193.92 366.58C194.78 363.03 187.64 358.29 178 356C168.36 353.71 159.8 354.71 159 358.26Z" fill="white"/>
<path d="M179.35 293.64C176.29 281.78 194.16 242.3 194.16 242.3L216.05 247.53C216.05 247.53 213.27 290.68 205.17 299.87C197.07 309.06 192.9 309.51 191 312.74C188.26 317.43 179.66 354.08 179.82 357.68C179.98 361.28 184.82 364.26 184.82 364.26L168.33 360.26C168.33 360.26 173.98 359.79 175.76 356.65C177.54 353.51 186.46 316.93 186.13 311.51C185.92 307.79 182.41 305.5 179.35 293.64Z" fill="#407BFF"/>
<path opacity="0.8" d="M179.35 293.64C176.29 281.78 194.16 242.3 194.16 242.3L216.05 247.53C216.05 247.53 213.27 290.68 205.17 299.87C197.07 309.06 192.9 309.51 191 312.74C188.26 317.43 179.66 354.08 179.82 357.68C179.98 361.28 184.82 364.26 184.82 364.26L168.33 360.26C168.33 360.26 173.98 359.79 175.76 356.65C177.54 353.51 186.46 316.93 186.13 311.51C185.92 307.79 182.41 305.5 179.35 293.64Z" fill="white"/>
<path opacity="0.3" d="M213 246.8C213 246.8 210.36 287.52 202.88 296.8C202.88 296.8 197.39 305.89 190.15 304.68C181.41 303.22 182.32 293.1 182.59 288.43C182.88 283.43 196.28 242.78 196.28 242.78L213 246.8Z" fill="white"/>
<path d="M190.15 304.7C181.41 303.24 182.32 293.12 182.59 288.45C182.915 286.283 183.403 284.144 184.05 282.05C191.84 279.72 209.82 274.31 209.88 273.98C208.28 283.57 206.01 292.98 202.88 296.82C202.88 296.82 197.39 305.91 190.15 304.7Z" fill="#407BFF"/>
<path opacity="0.5" d="M190.15 304.7C181.41 303.24 182.32 293.12 182.59 288.45C182.915 286.283 183.403 284.144 184.05 282.05C191.84 279.72 209.82 274.31 209.88 273.98C208.28 283.57 206.01 292.98 202.88 296.82C202.88 296.82 197.39 305.91 190.15 304.7Z" fill="white"/>
<path d="M184.05 285.11C184.54 286.59 190.58 285.91 197.52 283.58C204.46 281.25 209.69 278.16 209.2 276.67C208.71 275.18 202.66 275.87 195.72 278.2C188.78 280.53 183.55 283.62 184.05 285.11Z" fill="#407BFF"/>
<path opacity="0.3" d="M184.05 285.11C184.54 286.59 190.58 285.91 197.52 283.58C204.46 281.25 209.69 278.16 209.2 276.67C208.71 275.18 202.66 275.87 195.72 278.2C188.78 280.53 183.55 283.62 184.05 285.11Z" fill="white"/>
<path d="M194.1 242.38C193.94 243.07 198.73 244.77 204.78 246.18C210.83 247.59 215.88 248.18 216.04 247.49C216.2 246.8 211.42 245.1 205.36 243.69C199.3 242.28 194.26 241.69 194.1 242.38Z" fill="#407BFF"/>
<path opacity="0.8" d="M194.1 242.38C193.94 243.07 198.73 244.77 204.78 246.18C210.83 247.59 215.88 248.18 216.04 247.49C216.2 246.8 211.42 245.1 205.36 243.69C199.3 242.28 194.26 241.69 194.1 242.38Z" fill="white"/>
<path opacity="0.3" d="M213.3 251.5C213.3 251.5 212.49 309.91 192 306.75C198.297 302.545 202.855 296.2 204.83 288.89C208.036 276.538 210.24 263.947 211.42 251.24L213.3 251.5Z" fill="white"/>
<path opacity="0.3" d="M188.71 293.74C188.657 293.963 188.671 294.197 188.751 294.412C188.831 294.627 188.973 294.813 189.159 294.948C189.344 295.082 189.566 295.158 189.795 295.167C190.024 295.176 190.25 295.116 190.446 294.996C190.641 294.876 190.797 294.701 190.892 294.493C190.988 294.284 191.02 294.052 190.984 293.826C190.948 293.6 190.846 293.389 190.691 293.221C190.535 293.052 190.333 292.934 190.11 292.88C189.81 292.811 189.496 292.862 189.234 293.023C188.972 293.184 188.784 293.441 188.71 293.74Z" fill="white"/>
<path opacity="0.3" d="M190.22 298.94C190.172 299.134 190.203 299.338 190.307 299.509C190.41 299.68 190.576 299.802 190.77 299.85C190.964 299.898 191.168 299.867 191.339 299.763C191.51 299.66 191.632 299.494 191.68 299.3C191.704 299.204 191.708 299.105 191.693 299.007C191.678 298.909 191.645 298.816 191.593 298.731C191.542 298.647 191.475 298.573 191.396 298.514C191.316 298.456 191.226 298.414 191.13 298.39C191.034 298.366 190.935 298.362 190.837 298.377C190.739 298.392 190.646 298.425 190.561 298.477C190.477 298.528 190.403 298.595 190.344 298.674C190.286 298.754 190.244 298.844 190.22 298.94Z" fill="white"/>
<path opacity="0.3" d="M186.67 298C186.646 298.097 186.642 298.198 186.657 298.297C186.672 298.396 186.707 298.491 186.759 298.576C186.811 298.662 186.879 298.736 186.96 298.795C187.041 298.854 187.133 298.897 187.23 298.92C187.425 298.963 187.628 298.928 187.798 298.824C187.968 298.719 188.09 298.553 188.14 298.36C188.168 298.173 188.125 297.982 188.019 297.825C187.913 297.667 187.753 297.555 187.569 297.51C187.385 297.465 187.191 297.491 187.025 297.581C186.858 297.672 186.732 297.821 186.67 298Z" fill="white"/>
<path opacity="0.3" d="M197.94 290.61C197.907 290.754 197.917 290.905 197.969 291.043C198.021 291.181 198.113 291.301 198.233 291.387C198.353 291.474 198.496 291.523 198.644 291.528C198.792 291.533 198.938 291.495 199.064 291.417C199.19 291.34 199.29 291.227 199.352 291.092C199.414 290.958 199.435 290.808 199.412 290.662C199.389 290.516 199.323 290.38 199.223 290.271C199.123 290.162 198.994 290.085 198.85 290.05C198.753 290.025 198.653 290.019 198.554 290.034C198.455 290.049 198.361 290.084 198.275 290.136C198.19 290.188 198.117 290.257 198.059 290.339C198.002 290.42 197.961 290.512 197.94 290.61Z" fill="white"/>
<path opacity="0.3" d="M199.89 287.71C199.854 287.864 199.88 288.026 199.962 288.16C200.044 288.295 200.177 288.392 200.33 288.43C200.445 288.459 200.567 288.452 200.679 288.412C200.79 288.371 200.888 288.298 200.958 288.202C201.028 288.106 201.068 287.992 201.073 287.873C201.078 287.754 201.048 287.636 200.986 287.535C200.924 287.433 200.833 287.352 200.725 287.303C200.617 287.253 200.497 287.236 200.379 287.255C200.262 287.274 200.153 287.327 200.065 287.408C199.978 287.489 199.917 287.594 199.89 287.71Z" fill="white"/>
<path opacity="0.3" d="M201.57 292.09C201.551 292.237 201.586 292.386 201.67 292.508C201.754 292.63 201.88 292.717 202.024 292.752C202.168 292.787 202.32 292.767 202.45 292.696C202.581 292.626 202.68 292.51 202.73 292.37C202.749 292.294 202.753 292.216 202.741 292.139C202.729 292.062 202.702 291.988 202.661 291.921C202.62 291.855 202.566 291.798 202.502 291.753C202.438 291.708 202.366 291.676 202.29 291.66C202.138 291.623 201.977 291.648 201.842 291.728C201.708 291.809 201.61 291.938 201.57 292.09Z" fill="white"/>
<path opacity="0.3" d="M184.49 292.47C184.453 292.623 184.478 292.784 184.559 292.918C184.641 293.052 184.772 293.148 184.925 293.185C185.077 293.222 185.238 293.197 185.373 293.116C185.507 293.034 185.603 292.903 185.64 292.75C185.658 292.675 185.662 292.596 185.65 292.519C185.638 292.443 185.611 292.369 185.571 292.302C185.53 292.236 185.477 292.178 185.414 292.132C185.352 292.086 185.28 292.053 185.205 292.035C185.052 291.998 184.891 292.023 184.757 292.104C184.623 292.186 184.527 292.318 184.49 292.47Z" fill="white"/>
<path d="M149 344.7C148.4 344.83 160.64 319.39 160.7 318.7C160.76 318.01 172.39 310.7 180.39 310.58C188.39 310.46 197.14 315.44 197.67 317.72C198.2 320 194.41 321.93 194.41 321.93C194.41 321.93 200.78 325.74 193.76 330.11C193.76 330.11 198.76 333.4 197.09 336.31C196.533 337.294 195.692 338.088 194.677 338.585C193.661 339.083 192.519 339.263 191.4 339.1C190.7 338.84 190.5 336.1 186.94 337.17C183.38 338.24 181.05 341.88 181.05 341.88C181.05 341.88 190.05 338.78 191.33 342.5C192.61 346.22 192.12 345.91 189.33 347.41C186.54 348.91 181.21 350.76 179.72 350.68C178.23 350.6 176.24 355.68 171.72 359.07C170.06 360.31 168.07 362.85 165.87 364C165.55 364.17 159.78 371.92 160.06 371.92C160.65 371.92 140.49 351.71 140.49 351.71L149 344.7Z" fill="#B97964"/>
<path d="M365.55 168.07C371.84 185.61 373.33 195.71 371.47 211.14C369.29 229.14 364.22 251.19 364.22 251.19C357.93 256.28 297.09 249.48 265.63 242.63C264.49 242.38 265.31 232.16 265.31 232.16C265.31 232.16 259.09 241.16 257.61 240.87C249.03 238.95 243.55 237.66 243.55 237.66C243.55 237.66 253.31 224.17 271.44 172.48C280.3 147.24 308.27 141.48 324.02 142.21C350.27 143.46 365.55 168.07 365.55 168.07Z" fill="#263238"/>
<path d="M281.37 205C275.6 189.2 274.16 149.11 310.81 143.25C356.56 135.94 371.05 166.85 369.97 194.77C368.89 222.69 349.9 240.58 321.76 233.51C293.62 226.44 285.37 216 281.37 205Z" fill="#263238"/>
<path d="M340.93 217.5L311.32 236.5L305.5 240.86C306.276 244.685 306.589 248.59 306.43 252.49C306.07 259.05 301.69 261.43 295.96 263.49C289.43 265.78 276.72 271.11 276.72 269.59C276.72 268.59 301.61 323.7 301.86 324.65L349.06 258.57C341 262.42 336.68 233.64 340.93 217.5Z" fill="#EBB373"/>
<path opacity="0.2" d="M306.32 253.9C313.84 251.44 322.66 246.23 323.54 238.22C323.884 235.29 323.884 232.33 323.54 229.4L306 244.24C306.441 247.44 306.548 250.678 306.32 253.9Z" fill="black"/>
<path d="M353.62 192.89C345.79 217.19 343 227.61 327.28 237.76C303.64 253.02 275.48 239.76 275.89 214.06C276.25 190.9 288.99 155.06 315.68 150.06C342 145.17 361.45 168.58 353.62 192.89Z" fill="#EBB373"/>
<path d="M320.5 194.91C319.8 197.38 317.8 199.09 316.04 198.73C314.28 198.37 313.41 196.09 314.11 193.62C314.81 191.15 316.8 189.44 318.57 189.8C320.34 190.16 321.19 192.44 320.5 194.91Z" fill="#263238"/>
<path d="M294.8 188.68C294.13 191.04 292.18 192.68 290.45 192.31C288.72 191.94 287.86 189.77 288.53 187.42C289.2 185.07 291.15 183.42 292.88 183.79C294.61 184.16 295.47 186.33 294.8 188.68Z" fill="#263238"/>
<path d="M326.06 186.53C325.883 186.533 325.708 186.497 325.546 186.427C325.383 186.356 325.238 186.251 325.12 186.12C324.036 184.909 322.687 183.967 321.177 183.367C319.667 182.766 318.039 182.524 316.42 182.66C316.258 182.692 316.092 182.691 315.931 182.658C315.769 182.624 315.616 182.559 315.48 182.466C315.344 182.373 315.228 182.254 315.139 182.115C315.05 181.977 314.989 181.822 314.96 181.66C314.948 181.311 315.067 180.969 315.295 180.704C315.523 180.439 315.843 180.27 316.19 180.23C318.239 180.029 320.306 180.311 322.227 181.052C324.147 181.794 325.868 182.975 327.25 184.5C327.356 184.629 327.434 184.778 327.48 184.939C327.525 185.099 327.537 185.267 327.515 185.432C327.492 185.598 327.436 185.757 327.349 185.899C327.262 186.041 327.147 186.164 327.01 186.26C326.734 186.458 326.398 186.553 326.06 186.53Z" fill="#263238"/>
<path d="M288.72 174.67C288.473 174.48 288.311 174.199 288.27 173.89C288.258 173.727 288.278 173.563 288.329 173.408C288.38 173.253 288.462 173.11 288.568 172.986C288.675 172.862 288.806 172.761 288.952 172.688C289.098 172.615 289.257 172.571 289.42 172.56C291.409 172.281 293.436 172.464 295.343 173.093C297.25 173.723 298.987 174.782 300.42 176.19C300.527 176.31 300.608 176.451 300.656 176.603C300.705 176.756 300.721 176.918 300.703 177.078C300.685 177.237 300.634 177.391 300.552 177.529C300.471 177.668 300.361 177.787 300.23 177.88C299.964 178.083 299.632 178.179 299.299 178.149C298.966 178.119 298.656 177.966 298.43 177.72C297.274 176.62 295.882 175.798 294.361 175.316C292.84 174.834 291.228 174.706 289.65 174.94C289.317 174.969 288.985 174.873 288.72 174.67Z" fill="#263238"/>
<path d="M337.83 166.18C328.08 172.71 324.99 204.9 346.24 213.95C373.11 213.66 366.92 146.71 337.83 166.18Z" fill="#263238"/>
<path d="M296.15 213.32C297.199 216.633 298.004 220.019 298.56 223.45C299.17 223.45 299.78 223.45 300.39 223.45C308.71 223.37 312.54 220.58 314.26 217.52C315.073 216.01 315.509 214.325 315.53 212.61C315.578 211.639 315.491 210.667 315.27 209.72C310.88 212.39 303.14 213.07 298.99 213.25C297.25 213.35 296.15 213.32 296.15 213.32Z" fill="#263238"/>
<path d="M299 213.25L299.78 216.25C307.61 216.15 313.11 215.04 315.54 212.64C315.588 211.669 315.501 210.697 315.28 209.75C310.88 212.39 303.14 213.07 299 213.25Z" fill="white"/>
<path d="M300.39 223.45C308.71 223.37 312.54 220.58 314.26 217.52C311.101 217.614 307.983 218.264 305.05 219.44C303.118 220.26 301.489 221.662 300.39 223.45Z" fill="#DE5753"/>
<path d="M302.15 188.5C302.15 188.5 295 198.63 288.87 203C291.35 206.77 297.38 206.43 297.38 206.43L302.15 188.5Z" fill="#E4873E"/>
<path d="M313.88 187.51L319.27 190.13C316 192.45 313.88 187.51 313.88 187.51Z" fill="#263238"/>
<path d="M288.48 181.56L293.88 184.18C290.65 186.51 288.48 181.56 288.48 181.56Z" fill="#263238"/>
<path d="M317.05 144.79C306.5 145.92 286.27 163.99 283.05 170.13C296.48 175.53 342.99 167.44 342.99 167.44C342.99 167.44 366.5 179.97 356.65 164.44C346.8 148.91 317.05 144.79 317.05 144.79Z" fill="#263238"/>
<path d="M356.6 214.79C352.95 218.803 347.858 221.206 342.44 221.47C335.5 221.64 334.44 210.33 338.19 204.25C339.906 201.514 342.542 199.481 345.625 198.519C348.707 197.556 352.032 197.727 355 199C361 201.7 361.25 209.72 356.6 214.79Z" fill="#EBB373"/>
<path d="M340.59 220.37C340.385 221.285 340.456 222.24 340.794 223.114C341.132 223.989 341.722 224.744 342.489 225.283C343.256 225.822 344.165 226.122 345.102 226.144C346.04 226.167 346.963 225.911 347.754 225.408C348.546 224.906 349.171 224.181 349.55 223.323C349.93 222.466 350.046 221.515 349.885 220.592C349.724 219.668 349.293 218.813 348.646 218.134C347.999 217.456 347.165 216.985 346.25 216.78C345.023 216.506 343.738 216.73 342.677 217.403C341.615 218.076 340.865 219.143 340.59 220.37Z" fill="#407BFF"/>
<path opacity="0.1" d="M341.85 211.65H341.79C341.758 211.642 341.727 211.627 341.7 211.607C341.674 211.587 341.651 211.562 341.634 211.533C341.618 211.504 341.607 211.472 341.603 211.439C341.598 211.406 341.601 211.372 341.61 211.34C341.92 210.175 342.49 209.094 343.276 208.18C344.062 207.266 345.045 206.541 346.151 206.06C347.257 205.579 348.458 205.355 349.663 205.403C350.868 205.452 352.046 205.772 353.11 206.34C353.167 206.373 353.208 206.427 353.227 206.49C353.245 206.553 353.239 206.621 353.21 206.68C353.176 206.737 353.123 206.778 353.06 206.797C352.997 206.815 352.929 206.809 352.87 206.78C351.874 206.242 350.768 205.937 349.636 205.889C348.505 205.841 347.377 206.05 346.339 206.502C345.3 206.954 344.378 207.636 343.642 208.497C342.906 209.357 342.375 210.374 342.09 211.47C342.073 211.521 342.041 211.566 341.999 211.598C341.956 211.63 341.904 211.648 341.85 211.65Z" fill="black"/>
<path d="M267.38 444.1C264.45 437.9 271.64 413.36 270.38 395.56C262.07 364.56 260.76 332.13 258.93 314.92C257.86 304.81 257.17 281.55 257.17 281.55C260.09 272.3 286.28 265.27 295.83 262.55L305.27 316.55L348.71 255.88L361.52 257.83C389.87 262.15 380.83 267.03 380.04 284.15C379.88 287.76 380.77 289.82 380.35 293.21C378.5 307.85 377.12 320.73 376.17 332.01C375.65 338.31 375.24 344.09 374.95 349.46C374.85 351.15 374.76 352.85 374.69 354.46C374.22 364.69 374.18 373.22 374.44 380.46C374.44 381.55 374.5 382.64 374.59 383.72C374.595 383.77 374.595 383.82 374.59 383.87C376.09 400.81 393.79 427.74 398.89 434.47C398.89 434.47 402.62 434.95 404.28 444.2L267.38 444.1Z" fill="#407BFF"/>
<path opacity="0.6" d="M267.38 444.1C264.45 437.9 271.64 413.36 270.38 395.56C262.07 364.56 260.76 332.13 258.93 314.92C257.86 304.81 257.17 281.55 257.17 281.55C260.09 272.3 286.28 265.27 295.83 262.55L305.27 316.55L348.71 255.88L361.52 257.83C389.87 262.15 380.83 267.03 380.04 284.15C379.88 287.76 380.77 289.82 380.35 293.21C378.5 307.85 377.12 320.73 376.17 332.01C375.65 338.31 375.24 344.09 374.95 349.46C374.85 351.15 374.76 352.85 374.69 354.46C374.22 364.69 374.18 373.22 374.44 380.46C374.44 381.55 374.5 382.64 374.59 383.72C374.595 383.77 374.595 383.82 374.59 383.87C376.09 400.81 393.79 427.74 398.89 434.47C398.89 434.47 402.62 434.95 404.28 444.2L267.38 444.1Z" fill="white"/>
<path opacity="0.2" d="M332.81 352.12V347.54L326.39 343.65C326.39 343.65 347.44 294.41 346.96 295.65C346.48 296.89 341.96 346.55 341.25 345.94C340.54 345.33 336.68 354.94 336.68 354.94L332.81 352.12Z" fill="black"/>
<path d="M263.82 355.37C264.31 358.75 257.27 362.57 248.09 363.89C238.91 365.21 231.09 363.55 230.6 360.17C230.11 356.79 237.15 352.98 246.33 351.66C255.51 350.34 263.34 352 263.82 355.37Z" fill="#407BFF"/>
<path opacity="0.8" d="M263.82 355.37C264.31 358.75 257.27 362.57 248.09 363.89C238.91 365.21 231.09 363.55 230.6 360.17C230.11 356.79 237.15 352.98 246.33 351.66C255.51 350.34 263.34 352 263.82 355.37Z" fill="white"/>
<path d="M250.29 293.44C254.15 282.65 240.84 244.34 240.84 244.34L220 247.34C220 247.34 218.94 287.79 225.71 297.03C232.48 306.27 236.32 307.03 237.8 310.22C239.96 314.82 244.87 349.7 244.42 353.05C243.97 356.4 239.21 358.76 239.21 358.76L254.92 356.43C254.92 356.43 249.69 355.51 248.3 352.43C246.91 349.35 241.69 314.52 242.45 309.49C243 306.06 246.43 304.23 250.29 293.44Z" fill="#407BFF"/>
<path opacity="0.8" d="M250.29 293.44C254.15 282.65 240.84 244.34 240.84 244.34L220 247.34C220 247.34 218.94 287.79 225.71 297.03C232.48 306.27 236.32 307.03 237.8 310.22C239.96 314.82 244.87 349.7 244.42 353.05C243.97 356.4 239.21 358.76 239.21 358.76L254.92 356.43C254.92 356.43 249.69 355.51 248.3 352.43C246.91 349.35 241.69 314.52 242.45 309.49C243 306.06 246.43 304.23 250.29 293.44Z" fill="white"/>
<path opacity="0.3" d="M222.9 246.94C222.9 246.94 221.9 285.11 228.1 294.4C228.1 294.4 232.44 303.34 239.29 302.82C247.56 302.21 247.57 292.7 247.72 288.32C247.87 283.6 238.82 244.63 238.82 244.63L222.9 246.94Z" fill="white"/>
<path d="M239.29 302.82C247.56 302.21 247.57 292.7 247.72 288.32C247.596 286.273 247.322 284.237 246.9 282.23C239.84 279.4 223.53 272.84 223.51 272.53C224.18 281.6 225.51 290.53 228.1 294.4C228.1 294.4 232.44 303.34 239.29 302.82Z" fill="#407BFF"/>
<path opacity="0.5" d="M239.29 302.82C247.56 302.21 247.57 292.7 247.72 288.32C247.596 286.273 247.322 284.237 246.9 282.23C239.84 279.4 223.53 272.84 223.51 272.53C224.18 281.6 225.51 290.53 228.1 294.4C228.1 294.4 232.44 303.34 239.29 302.82Z" fill="white"/>
<path d="M247 282.63C246.39 284.01 240.66 282.83 234.19 279.98C227.72 277.13 222.97 273.71 223.57 272.33C224.17 270.95 229.92 272.13 236.39 274.97C242.86 277.81 247.57 281.25 247 282.63Z" fill="#407BFF"/>
<path opacity="0.3" d="M247 282.63C246.39 284.01 240.66 282.83 234.19 279.98C227.72 277.13 222.97 273.71 223.57 272.33C224.17 270.95 229.92 272.13 236.39 274.97C242.86 277.81 247.57 281.25 247 282.63Z" fill="white"/>
<path d="M240.83 244.31C240.93 244.98 236.35 246.21 230.6 247.06C224.85 247.91 220.11 248.06 220.02 247.37C219.93 246.68 224.5 245.47 230.24 244.62C235.98 243.77 240.73 243.63 240.83 244.31Z" fill="#407BFF"/>
<path opacity="0.8" d="M240.83 244.31C240.93 244.98 236.35 246.21 230.6 247.06C224.85 247.91 220.11 248.06 220.02 247.37C219.93 246.68 224.5 245.47 230.24 244.62C235.98 243.77 240.73 243.63 240.83 244.31Z" fill="white"/>
<path opacity="0.3" d="M221.79 247.78C221.79 247.78 217.47 303.98 237.43 302.78C231.744 298.192 227.917 291.697 226.66 284.5C224.67 272.351 223.667 260.061 223.66 247.75L221.79 247.78Z" fill="white"/>
<path opacity="0.3" d="M241.73 290.52C241.761 290.739 241.726 290.962 241.631 291.161C241.536 291.36 241.383 291.527 241.193 291.64C241.004 291.752 240.784 291.807 240.564 291.795C240.343 291.784 240.131 291.708 239.954 291.576C239.776 291.445 239.642 291.263 239.567 291.056C239.492 290.848 239.481 290.622 239.534 290.408C239.587 290.193 239.702 289.999 239.865 289.85C240.028 289.701 240.232 289.604 240.45 289.57C240.746 289.527 241.046 289.603 241.286 289.781C241.526 289.959 241.685 290.225 241.73 290.52Z" fill="white"/>
<path opacity="0.3" d="M239.83 295.39C239.856 295.581 239.805 295.774 239.689 295.928C239.573 296.081 239.401 296.183 239.21 296.21C239.116 296.226 239.02 296.222 238.927 296.2C238.834 296.177 238.747 296.136 238.67 296.079C238.594 296.022 238.53 295.95 238.481 295.868C238.433 295.786 238.402 295.695 238.39 295.6C238.367 295.502 238.365 295.4 238.384 295.301C238.403 295.202 238.442 295.108 238.499 295.024C238.556 294.941 238.63 294.871 238.715 294.817C238.801 294.764 238.896 294.729 238.996 294.714C239.096 294.7 239.198 294.706 239.295 294.733C239.392 294.759 239.483 294.806 239.561 294.87C239.639 294.933 239.704 295.012 239.75 295.102C239.796 295.191 239.824 295.289 239.83 295.39Z" fill="white"/>
<path opacity="0.3" d="M243.31 294.82C243.332 294.963 243.312 295.11 243.251 295.241C243.189 295.373 243.09 295.483 242.966 295.558C242.842 295.633 242.699 295.669 242.554 295.662C242.409 295.655 242.269 295.606 242.153 295.519C242.037 295.432 241.949 295.313 241.901 295.176C241.852 295.04 241.846 294.892 241.882 294.751C241.918 294.611 241.995 294.484 242.103 294.388C242.212 294.292 242.346 294.23 242.49 294.21C242.679 294.184 242.871 294.234 243.025 294.348C243.178 294.462 243.28 294.631 243.31 294.82Z" fill="white"/>
<path opacity="0.3" d="M233.14 286.7C233.163 286.798 233.164 286.9 233.146 286.999C233.127 287.098 233.088 287.192 233.031 287.276C232.974 287.359 232.9 287.429 232.815 287.483C232.729 287.536 232.634 287.571 232.534 287.586C232.434 287.6 232.332 287.594 232.235 287.567C232.138 287.541 232.047 287.494 231.969 287.431C231.891 287.367 231.826 287.288 231.78 287.198C231.734 287.109 231.706 287.011 231.7 286.91C231.684 286.816 231.688 286.72 231.71 286.627C231.733 286.534 231.774 286.447 231.831 286.37C231.888 286.294 231.96 286.23 232.042 286.181C232.124 286.133 232.215 286.102 232.31 286.09C232.501 286.061 232.695 286.109 232.851 286.224C233.006 286.338 233.11 286.509 233.14 286.7Z" fill="white"/>
<path opacity="0.3" d="M230.94 284.4C231.255 284.4 231.51 284.145 231.51 283.83C231.51 283.515 231.255 283.26 230.94 283.26C230.625 283.26 230.37 283.515 230.37 283.83C230.37 284.145 230.625 284.4 230.94 284.4Z" fill="white"/>
<path opacity="0.3" d="M229.52 287.81C229.54 287.962 229.5 288.116 229.409 288.239C229.317 288.363 229.181 288.445 229.03 288.47C228.917 288.487 228.801 288.469 228.697 288.42C228.594 288.371 228.507 288.292 228.448 288.193C228.39 288.095 228.361 287.981 228.367 287.867C228.373 287.753 228.412 287.642 228.481 287.55C228.549 287.458 228.643 287.389 228.751 287.35C228.859 287.311 228.976 287.306 229.087 287.333C229.198 287.361 229.299 287.421 229.376 287.506C229.453 287.591 229.503 287.697 229.52 287.81Z" fill="white"/>
<path opacity="0.3" d="M245.9 289.66C245.905 289.802 245.857 289.942 245.766 290.051C245.675 290.161 245.547 290.233 245.406 290.254C245.265 290.275 245.121 290.243 245.002 290.165C244.883 290.087 244.797 289.968 244.76 289.83C244.747 289.756 244.75 289.679 244.767 289.606C244.784 289.533 244.817 289.463 244.861 289.403C244.906 289.342 244.963 289.291 245.028 289.253C245.093 289.214 245.165 289.19 245.24 289.18C245.391 289.157 245.545 289.194 245.669 289.284C245.792 289.374 245.875 289.509 245.9 289.66Z" fill="white"/>
<path opacity="0.2" d="M260.44 343.65C260.44 343.65 311.83 399.01 335.84 401.7C359.85 404.39 374.67 374.62 374.67 374.62V359.67L366 357.41C366 357.41 334.79 375.85 334.06 375.85C333.33 375.85 260.44 343.65 260.44 343.65Z" fill="black"/>
<path d="M370.14 362.6C367.15 371.997 361.747 380.445 354.47 387.1C347.07 393.76 339.34 397.19 330.56 394.8C314.56 390.43 249.65 334.5 249.65 334.5L252.34 312.85C264.86 314.27 327.5 353.62 334.59 352.29L353.73 291.73L385.36 315.88L370.14 362.6Z" fill="#EBB373"/>
<path d="M371.67 259.65C353.95 259.47 330.67 344.11 330.67 344.11L383.44 364C383.44 364 388.37 351.49 395.8 312C402.21 277.91 392.4 259.85 371.67 259.65Z" fill="#407BFF"/>
<path opacity="0.6" d="M371.67 259.65C353.95 259.47 330.67 344.11 330.67 344.11L383.44 364C383.44 364 388.37 351.49 395.8 312C402.21 277.91 392.4 259.85 371.67 259.65Z" fill="white"/>
<path d="M260.87 315.35C260.87 315.35 246.99 304.66 244.49 306.42C242.943 307.508 241.454 308.676 240.03 309.92C240.03 309.92 225.94 307.7 225.23 311.61C224.52 315.52 227 317 227 317C227 317 221.58 319.13 223.79 323C224.77 324.894 226.001 326.646 227.45 328.21C227.45 328.21 224.52 331.12 226.33 334.21C226.785 335.06 227.457 335.775 228.277 336.282C229.097 336.79 230.036 337.072 231 337.1C231 337.1 227.16 342.1 231.34 343.94C235.52 345.78 262.56 340.17 266.47 336.61C270.38 333.05 260.87 315.35 260.87 315.35Z" fill="#EBB373"/>
<path d="M376.13 391.37C376.13 391.37 357.13 403.82 356.63 408.65C356.13 413.48 362.56 410.92 362.56 410.92C362.56 410.92 355.65 414.17 356.63 417.29C357.81 421.04 364.55 418.29 364.55 418.29C364.55 418.29 359.01 421.17 360.08 423.89C361.15 426.61 368.99 424.19 368.99 424.19C368.99 424.19 365.48 426.96 367.29 428.43C369.1 429.9 385.79 424.87 389.59 420.12C393.39 415.37 386.15 394.18 383.59 389.88C381.03 385.58 382.65 385.35 374.44 380.32C374.236 384.062 374.801 387.805 376.1 391.32L376.13 391.37Z" fill="#B97964"/>
<path opacity="0.2" d="M362.69 411.26L374.5 405C374.578 404.95 374.633 404.873 374.655 404.784C374.678 404.695 374.665 404.6 374.62 404.52C374.583 404.438 374.515 404.373 374.431 404.34C374.347 404.306 374.254 404.306 374.17 404.34L362.39 410.59C362.314 410.641 362.26 410.718 362.238 410.807C362.216 410.896 362.227 410.989 362.27 411.07C362.305 411.147 362.367 411.209 362.444 411.244C362.522 411.279 362.609 411.285 362.69 411.26Z" fill="black"/>
<path opacity="0.2" d="M365 418.53L376.79 413.43C376.864 413.382 376.918 413.31 376.944 413.227C376.969 413.143 376.964 413.052 376.929 412.972C376.894 412.892 376.832 412.826 376.753 412.787C376.675 412.748 376.585 412.739 376.5 412.76L364.71 417.86C364.63 417.904 364.569 417.975 364.539 418.061C364.509 418.147 364.511 418.241 364.546 418.325C364.581 418.409 364.645 418.478 364.727 418.517C364.809 418.557 364.902 418.565 364.99 418.54L365 418.53Z" fill="black"/>
<path opacity="0.2" d="M369.54 424.41L378.41 420.87C378.491 420.829 378.553 420.758 378.583 420.672C378.613 420.587 378.608 420.492 378.57 420.41C378.54 420.323 378.478 420.25 378.396 420.207C378.314 420.164 378.219 420.155 378.13 420.18L369.26 423.72C369.18 423.765 369.119 423.837 369.089 423.924C369.06 424.011 369.064 424.106 369.1 424.19C369.132 424.276 369.195 424.346 369.277 424.387C369.358 424.428 369.452 424.436 369.54 424.41Z" fill="black"/>
</svg>
